<svg xmlns="http://www.w3.org/2000/svg" xmlns:xlink="http://www.w3.org/1999/xlink" x="0px" y="0px" viewBox="0 0 256 256" xml:space="preserve"><metadata> Svg Vector Icons : http://www.onlinewebfonts.com/icon </metadata><g><g><g><path fill="#000000" d="M85.9,10.1c-0.7,0.1-3.4,0.4-5.8,0.7c-2.4,0.3-4.7,0.7-5.1,0.9c-0.4,0.2-1.5,2.2-2.4,4.4c-6.5,16.4-7.8,38.8-3.7,64.6l0.7,4.8l2.4,2.5c4,4,7.7,12.5,10.8,24.4c3.9,15.2,7.1,36.4,8.3,55.9c0.4,5.9,0.7,8.7,1.4,10.5c1.8,4.8,5.2,8.2,9.8,9.8c2.6,0.9,3,1.4,6.2,7.5c5.5,10.3,8.8,20.5,9.2,28.7c0.5,8.6-1.2,13.8-6,18.5l-2.7,2.7h4.4h4.3l1.4-1.8c3.6-4.5,5.1-9.7,5.1-17.2c0-10.1-3.7-23.2-10.5-36.5c-1.7-3.4-1.8-3.3,0.9-4.7l1.2-0.7v-8.9c0-4.9,0.1-14.5,0.3-21.4l0.3-12.5l4-0.1l4-0.1l0.1-19.3l0.1-19.2h-4.2h-4.2l0.3-2.9c0.6-5.5,2.8-11.5,5.4-15.1c2.4-3.5,11.7-6,30.4-8.2c14-1.7,35.9-3.4,53.4-4c6-0.2,8.2-0.5,7.6-0.8c-2.7-1.5-5.1-5.5-6.7-11.3c-1.3-4.9-1.4-17.1-0.2-22.4c1.4-6.1,3.8-10.7,6.2-12c1-0.5-1.7-0.6-16.6-0.6c-32.1,0-45.5-1.8-65.2-9.1c-14.4-5.3-21.4-6.6-34.8-6.9C91.3,10,86.7,10,85.9,10.1z"></path><path fill="#000000" d="M58.5,14.3c-10.6,3.1-18.2,7.3-24.3,13.3c-6.4,6.3-9,12.1-9.7,21c-0.4,5.1,0.4,12.1,1.9,16.5C30,75.7,37.7,81.3,52.2,83.9c2.3,0.4,4.7,0.7,5.4,0.7h1.2l-1-6.4c-3-18-2.6-35.9,1-50c0.9-3.6,3.5-10.7,5.2-14.8C64.2,12.8,62.5,13.1,58.5,14.3z"></path><path fill="#000000" d="M219.9,29.5c-6.9,5.8-8,28.4-1.8,37.6c4.3,6.5,9.7,3.3,12.5-7.4c0.7-2.8,1-5,1-10c0-7.5-0.8-11.9-2.9-16.2C226.1,28.4,222.9,26.9,219.9,29.5z"></path></g></g></g></svg>